<svg xmlns="http://www.w3.org/2000/svg" viewBox="0 0 1200 900">
  <defs><linearGradient id="g" x1="0" x2="1" y1="0" y2="1"><stop stop-color="#052E5E"/><stop offset=".52" stop-color="#00A9CE"/><stop offset="1" stop-color="#78BE20"/></linearGradient></defs>
  <rect width="1200" height="900" fill="url(#g)"/>
  <g stroke="rgba(255,255,255,.74)" stroke-width="22" fill="none" stroke-linecap="round">
    <path d="M600 130c-180 110-180 250 0 360s180 250 0 360"/>
    <path d="M600 130c180 110 180 250 0 360s-180 250 0 360"/>
    <path d="M480 245h240M445 350h310M462 470h280M455 590h290M480 700h240" stroke-width="16" opacity=".8"/>
  </g>
  <g fill="#C8F244"><circle cx="250" cy="210" r="46"/><circle cx="930" cy="620" r="64"/><circle cx="980" cy="270" r="24"/></g>
  <path d="M185 610c90-126 218-144 326-54-88 114-218 150-326 54z" fill="rgba(255,255,255,.86)"/>
</svg>
